REM DIRINDEX 1\5,1\2\6,1\2\7,1\3\8,1\3\9,1\4\10,1\4\11,1\4\12
REM DIRNAME cjc026,folder01,folder02,folder03,folder04,folder05,folder06,folder07,folder08,folder09,folder10,folder11
TITLE ""
FILE "EJE_DB3000_5th_5C_19.mp3" MP3
  TRACK 01 AUDIO
    TITLE "0:"
    INDEX 01 00:00:00
  TRACK 02 AUDIO
    TITLE "10:cjc026_10863"
    INDEX 01 00:00:08
  TRACK 03 AUDIO
    TITLE "0:"
    INDEX 01 00:01:41
  TRACK 04 AUDIO
    TITLE "11:cjc026_10864"
    INDEX 01 00:02:03
  TRACK 05 AUDIO
    TITLE "0:"
    INDEX 01 00:03:50
  TRACK 06 AUDIO
    TITLE "12:cjc026_10865"
    INDEX 01 00:04:10
  TRACK 07 AUDIO
    TITLE "0:"
    INDEX 01 00:05:43
  TRACK 08 AUDIO
    TITLE "10:cjc026_10866"
    INDEX 01 00:06:09
  TRACK 09 AUDIO
    TITLE "0:"
    INDEX 01 00:07:28
  TRACK 10 AUDIO
    TITLE "11:cjc026_10867"
    INDEX 01 00:07:66
  TRACK 11 AUDIO
    TITLE "0:"
    INDEX 01 00:09:29
  TRACK 12 AUDIO
    TITLE "12:cjc026_10868"
    INDEX 01 00:09:64
  TRACK 13 AUDIO
    TITLE "0:"
    INDEX 01 00:11:12
  TRACK 14 AUDIO
    TITLE "10:cjc026_10869"
    INDEX 01 00:11:49
  TRACK 15 AUDIO
    TITLE "0:"
    INDEX 01 00:12:69
  TRACK 16 AUDIO
    TITLE "11:cjc026_10870"
    INDEX 01 00:13:32
  TRACK 17 AUDIO
    TITLE "0:"
    INDEX 01 00:15:03
  TRACK 18 AUDIO
    TITLE "12:cjc026_10871"
    INDEX 01 00:15:38
  TRACK 19 AUDIO
    TITLE "0:"
    INDEX 01 00:16:58
  TRACK 20 AUDIO
    TITLE "10:cjc026_10872"
    INDEX 01 00:17:21
  TRACK 21 AUDIO
    TITLE "0:"
    INDEX 01 00:18:40
  TRACK 22 AUDIO
    TITLE "11:cjc026_10873"
    INDEX 01 00:19:00
  TRACK 23 AUDIO
    TITLE "0:"
    INDEX 01 00:20:36
  TRACK 24 AUDIO
    TITLE "12:cjc026_10874"
    INDEX 01 00:20:71
  TRACK 25 AUDIO
    TITLE "0:"
    INDEX 01 00:22:15
  TRACK 26 AUDIO
    TITLE "10:cjc026_10875"
    INDEX 01 00:22:59
  TRACK 27 AUDIO
    TITLE "0:"
    INDEX 01 00:24:06
  TRACK 28 AUDIO
    TITLE "11:cjc026_10876"
    INDEX 01 00:24:38
  TRACK 29 AUDIO
    TITLE "0:"
    INDEX 01 00:25:60
  TRACK 30 AUDIO
    TITLE "12:cjc026_10877"
    INDEX 01 00:26:26
  TRACK 31 AUDIO
    TITLE "0:"
    INDEX 01 00:27:48
  TRACK 32 AUDIO
    TITLE "10:cjc026_10878"
    INDEX 01 00:28:06
  TRACK 33 AUDIO
    TITLE "0:"
    INDEX 01 00:29:33
  TRACK 34 AUDIO
    TITLE "11:cjc026_10879"
    INDEX 01 00:29:71
  TRACK 35 AUDIO
    TITLE "0:"
    INDEX 01 00:31:26
  TRACK 36 AUDIO
    TITLE "12:cjc026_10880"
    INDEX 01 00:31:64
  TRACK 37 AUDIO
    TITLE "0:"
    INDEX 01 00:33:14
  TRACK 38 AUDIO
    TITLE "10:cjc026_10881"
    INDEX 01 00:33:52
  TRACK 39 AUDIO
    TITLE "0:"
    INDEX 01 00:35:34
  TRACK 40 AUDIO
    TITLE "11:cjc026_10882"
    INDEX 01 00:35:72
  TRACK 41 AUDIO
    TITLE "0:"
    INDEX 01 00:37:22
  TRACK 42 AUDIO
    TITLE "12:cjc026_10883"
    INDEX 01 00:37:57
  TRACK 43 AUDIO
    TITLE "0:"
    INDEX 01 00:39:36
  TRACK 44 AUDIO
    TITLE "10:cjc026_10884"
    INDEX 01 00:39:74
  TRACK 45 AUDIO
    TITLE "0:"
    INDEX 01 00:41:27
  TRACK 46 AUDIO
    TITLE "11:cjc026_10885"
    INDEX 01 00:41:62
  TRACK 47 AUDIO
    TITLE "0:"
    INDEX 01 00:43:20
  TRACK 48 AUDIO
    TITLE "12:cjc026_10886"
    INDEX 01 00:43:58
  TRACK 49 AUDIO
    TITLE "0:"
    INDEX 01 00:45:10
  TRACK 50 AUDIO
    TITLE "10:cjc026_10887"
    INDEX 01 00:45:48
  TRACK 51 AUDIO
    TITLE "0:"
    INDEX 01 00:46:54
  TRACK 52 AUDIO
    TITLE "11:cjc026_10888"
    INDEX 01 00:47:17
  TRACK 53 AUDIO
    TITLE "0:"
    INDEX 01 00:48:36
  TRACK 54 AUDIO
    TITLE "12:cjc026_10889"
    INDEX 01 00:48:74
  TRACK 55 AUDIO
    TITLE "0:"
    INDEX 01 00:50:05
  TRACK 56 AUDIO
    TITLE "10:cjc026_10890"
    INDEX 01 00:50:46
  TRACK 57 AUDIO
    TITLE "0:"
    INDEX 01 00:52:01
  TRACK 58 AUDIO
    TITLE "11:cjc026_10891"
    INDEX 01 00:52:39
  TRACK 59 AUDIO
    TITLE "0:"
    INDEX 01 00:53:48
  TRACK 60 AUDIO
    TITLE "12:cjc026_10892"
    INDEX 01 00:54:08
  TRACK 61 AUDIO
    TITLE "0:"
    INDEX 01 00:55:38
  TRACK 62 AUDIO
    TITLE "10:cjc026_10893"
    INDEX 01 00:56:01
  TRACK 63 AUDIO
    TITLE "0:"
    INDEX 01 00:57:23
  TRACK 64 AUDIO
    TITLE "11:cjc026_10894"
    INDEX 01 00:57:58
  TRACK 65 AUDIO
    TITLE "0:"
    INDEX 01 00:59:19
  TRACK 66 AUDIO
    TITLE "12:cjc026_10895"
    INDEX 01 00:59:57
  TRACK 67 AUDIO
    TITLE "0:"
    INDEX 01 01:01:04
  TRACK 68 AUDIO
    TITLE "10:cjc026_10896"
    INDEX 01 01:01:39
  TRACK 69 AUDIO
    TITLE "0:"
    INDEX 01 01:02:56
  TRACK 70 AUDIO
    TITLE "11:cjc026_10897"
    INDEX 01 01:03:13
  TRACK 71 AUDIO
    TITLE "0:"
    INDEX 01 01:04:46
  TRACK 72 AUDIO
    TITLE "12:cjc026_10898"
    INDEX 01 01:05:09
  TRACK 73 AUDIO
    TITLE "0:"
    INDEX 01 01:06:26
  TRACK 74 AUDIO
    TITLE "10:cjc026_10899"
    INDEX 01 01:06:58
  TRACK 75 AUDIO
    TITLE "0:"
    INDEX 01 01:08:13
  TRACK 76 AUDIO
    TITLE "11:cjc026_10900"
    INDEX 01 01:08:51
  TRACK 77 AUDIO
    TITLE "0:"
    INDEX 01 01:10:01
  TRACK 78 AUDIO
    TITLE "12:cjc026_10901"
    INDEX 01 01:10:36
  TRACK 79 AUDIO
    TITLE "0:"
    INDEX 01 01:11:66
